<?xml version="1.0" standalone="no"?><!DOCTYPE svg PUBLIC "-//W3C//DTD SVG 1.1//EN" "http://www.w3.org/Graphics/SVG/1.1/DTD/svg11.dtd"><svg t="1639897117842" class="icon" viewBox="0 0 1024 1024" version="1.1" xmlns="http://www.w3.org/2000/svg" p-id="3131" xmlns:xlink="http://www.w3.org/1999/xlink" width="200" height="200"><defs><style type="text/css"></style></defs><path d="M899.5 899.5h-775v-775h775v775z" fill="#F2994A" p-id="3132" data-spm-anchor-id="a313x.7781069.0.i27" class="selected"></path><path d="M137 137v750h750V137H137m-25-25h800v800H112V112z" fill="#F2994A" p-id="3133" data-spm-anchor-id="a313x.7781069.0.i28" class="selected"></path><path d="M643.029 345.834c0-7.64-3.82-13.643-10.368-18.008s-14.188-7.64-22.92-10.368c-9.277-2.183-18.554-3.274-27.285-4.366-9.823-0.546-16.917-1.091-21.828-1.091-3.82 0-10.368 0.546-19.645 1.091-9.823 1.091-20.737 1.637-32.742 2.183-12.005 1.091-25.1 2.729-38.2 3.82-13.643 1.637-26.194 2.729-37.108 3.82l-29.468 3.82c-8.186 1.091-13.1 2.183-14.188 2.729-6.548 3.274-9.277 9.277-9.277 18.008 0 6 2.183 12.005 7.094 18.554a18.4 18.4 0 0 0 9.277 2.729 27.033 27.033 0 0 0 9.277 1.091 158.67 158.67 0 0 0 20.732-1.093c8.731-1.091 16.917-2.183 24.557-3.82 7.094-1.091 14.188-2.728 21.282-3.82s13.643-2.729 20.191-3.82c12.005-2.183 22.92-3.82 33.288-4.911a333.686 333.686 0 0 1 34.925-1.637c10.914 0 16.371 5.457 17.462 16.371-7.094 11.46-13.643 22.919-19.1 33.834a321.286 321.286 0 0 0-15.825 34.379c-10.368 23.465-20.191 46.93-28.922 69.85-9.277 22.92-17.462 45.839-25.1 69.3-7.64 24.011-14.188 47.476-19.645 70.941a111.766 111.766 0 0 0-2.729 13.1 58.277 58.277 0 0 0-1.637 13.643 105.147 105.147 0 0 0 0.546 13.1 41.164 41.164 0 0 0 4.366 13.1 26.67 26.67 0 0 0 7.64 9.823 25.8 25.8 0 0 0 14.188 3.82 16.045 16.045 0 0 0 12.005-4.911c3.274-3.274 5.457-7.094 7.64-11.46l3.274-14.734c0-4.366 0.546-8.731 0.546-13.1a92.5 92.5 0 0 1 0.546-12.005c0-4.366 0-8.731 1.091-13.1 0.546-6 1.637-12.005 2.729-18.008a116.62 116.62 0 0 1 4.366-17.462c4.366-16.917 9.823-36.562 16.917-58.39a842.05 842.05 0 0 1 22.92-64.939 600.189 600.189 0 0 1 29.469-62.757c10.368-19.645 21.828-36.016 34.925-49.659l5.457-5.457 4.911-6c1.091-1.637 1.637-3.82 2.729-6.548a15.847 15.847 0 0 0 1.637-7.642z" fill="#FFFFFF" p-id="3134"></path></svg>