<?xml version="1.0" standalone="no"?><!DOCTYPE svg PUBLIC "-//W3C//DTD SVG 1.1//EN" "http://www.w3.org/Graphics/SVG/1.1/DTD/svg11.dtd"><svg t="1639893366770" class="icon" viewBox="0 0 1024 1024" version="1.1" xmlns="http://www.w3.org/2000/svg" p-id="1793" xmlns:xlink="http://www.w3.org/1999/xlink" width="200" height="200"><defs><style type="text/css"></style></defs><path d="M774 200c27.6 0 50 22.4 50 50v524c0 27.6-22.4 50-50 50H250c-27.6 0-50-22.4-50-50V250c0-27.6 22.4-50 50-50h524m0-72H250c-16.4 0-32.4 3.2-47.5 9.6-14.5 6.1-27.6 14.9-38.8 26.1-11.2 11.2-20 24.2-26.1 38.8-6.4 15.1-9.6 31.1-9.6 47.5v524c0 16.4 3.2 32.4 9.6 47.5 6.1 14.5 14.9 27.6 26.1 38.8 11.2 11.2 24.2 20 38.8 26.1 15.1 6.4 31.1 9.6 47.5 9.6h524c16.4 0 32.4-3.2 47.5-9.6 14.5-6.1 27.6-14.9 38.8-26.1 11.2-11.2 20-24.2 26.1-38.8 6.4-15.1 9.6-31.1 9.6-47.5V250c0-16.4-3.2-32.4-9.6-47.5-6.1-14.5-14.9-27.6-26.1-38.8-11.2-11.2-24.2-20-38.8-26.1-15.1-6.4-31.1-9.6-47.5-9.6z" p-id="1794" fill="#828282"></path></svg>