<?xml version="1.0" standalone="no"?><!DOCTYPE svg PUBLIC "-//W3C//DTD SVG 1.1//EN" "http://www.w3.org/Graphics/SVG/1.1/DTD/svg11.dtd"><svg t="1639880693101" class="icon" viewBox="0 0 1024 1024" version="1.1" xmlns="http://www.w3.org/2000/svg" p-id="3893" xmlns:xlink="http://www.w3.org/1999/xlink" width="200" height="200"><defs><style type="text/css"></style></defs><path d="M512 1024C229.6832 1024 0 794.29632 0 512S229.6832 0 512 0s512 229.70368 512 512-229.66272 512-512 512z m0-921.6C286.14656 102.4 102.4 286.14656 102.4 512s183.74656 409.6 409.6 409.6 409.6-183.74656 409.6-409.6S737.85344 102.4 512 102.4z" p-id="3894" fill="#4f4f4f"></path><path d="M704.36864 612.84352l-204.8-51.2A51.2 51.2 0 0 1 460.8 512V256a51.2 51.2 0 0 1 102.4 0v216.00256l166.03136 41.55392a51.2 51.2 0 1 1-24.84224 99.30752z" p-id="3895" fill="#4f4f4f"></path></svg>