<?xml version="1.0" standalone="no"?><!DOCTYPE svg PUBLIC "-//W3C//DTD SVG 1.1//EN" "http://www.w3.org/Graphics/SVG/1.1/DTD/svg11.dtd"><svg t="1640241027589" class="icon" viewBox="0 0 1024 1024" version="1.1" xmlns="http://www.w3.org/2000/svg" p-id="20435" data-spm-anchor-id="a313x.7781069.0.i18" xmlns:xlink="http://www.w3.org/1999/xlink" width="200" height="200"><defs><style type="text/css"></style></defs><path d="M978.672 111.92L911.088 44.48a47.84 47.84 0 0 0-67.568 0l-101.344 101.152 135.136 134.864 101.344-101.152a47.568 47.568 0 0 0 0.016-67.424zM848 912H112V176h533.712l96-96H64a48 48 0 0 0-48 48v832a48 48 0 0 0 48 48h832a48 48 0 0 0 48-48V285.008l-96 96V912z m-4.464-597.776l-135.12-134.864-405.408 404.608 135.136 134.864 405.392-404.608zM223.968 797.44l180.128-44.896-135.152-134.896-44.976 179.792z" fill="#2D9CDB" p-id="20436" data-spm-anchor-id="a313x.7781069.0.i15" class=""></path></svg>