<?xml version="1.0" standalone="no"?><!DOCTYPE svg PUBLIC "-//W3C//DTD SVG 1.1//EN" "http://www.w3.org/Graphics/SVG/1.1/DTD/svg11.dtd"><svg t="1640067919149" class="icon" viewBox="0 0 1024 1024" version="1.1" xmlns="http://www.w3.org/2000/svg" p-id="11799" xmlns:xlink="http://www.w3.org/1999/xlink" width="200" height="200"><defs><style type="text/css"></style></defs><path d="M397.034 259.796v-0.306c0-31.941-23.677-59.042-55.62-59.042h-2v-86.007c0-16.053-13.219-29.069-29.278-29.069-16.052 0-29.272 13.016-29.272 29.07v86.005h1.805c-31.943 0-59.429 27.1-59.429 59.042v0.302c-29.738 0-58.55 26.032-58.55 58.142v579.548h290.893V317.933c0.001-32.11-25.09-58.137-58.55-58.137z m-116.17 580.062h-57.623v-58.55h57.624v58.55z m0-116.17h-57.623v-58.554h57.624v58.554z m0-115.242h-57.623v-59.481h57.624v59.48z m0-117.106h-57.623v-58.55h57.624v58.55z m0-117.1h-57.623v-57.619h57.624v57.62z m116.17 465.618h-57.62v-58.55h57.62v58.55z m0-116.17h-57.62v-58.554h57.62v58.554z m0-115.242h-57.62v-59.481h57.62v59.48z m0-117.106h-57.62v-58.55h57.62v58.55z m0-117.1h-57.62v-57.619h57.62v57.62z m409.2-57.619h-58.137c-32.112 0-60.165 27.344-60.165 59.455v116.28c0-32.112-24.004-59.566-56.115-59.566h-58.142c-32.112 0-59.54 27.454-59.54 59.567V897.48h348.517V376.076c0-32.111-24.305-59.455-56.418-59.455zM631.24 839.858h-59.482v-58.55h59.482v58.55z m0-116.17h-59.482v-58.554h59.482v58.554z m0-115.242h-59.482v-59.481h59.482v59.48z m172.863 231.412h-57.62v-58.55h57.62v58.55z m0-116.17h-57.62v-58.554h57.62v58.554z m0-115.242h-57.62v-59.481h57.62v59.48z m0-117.106h-57.62v-58.55h57.62v58.55z m0 0" fill="#828282" p-id="11800" data-spm-anchor-id="a313x.7781069.0.i30" class="selected"></path></svg>