<?xml version="1.0" standalone="no"?><!DOCTYPE svg PUBLIC "-//W3C//DTD SVG 1.1//EN" "http://www.w3.org/Graphics/SVG/1.1/DTD/svg11.dtd"><svg t="1640067141650" class="icon" viewBox="0 0 1024 1024" version="1.1" xmlns="http://www.w3.org/2000/svg" p-id="4303" xmlns:xlink="http://www.w3.org/1999/xlink" width="200" height="200"><defs><style type="text/css"></style></defs><path d="M851.2 441.6l-320-268.8c-12.8-12.8-32-12.8-38.4 0l-320 268.8C166.4 448 160 460.8 160 467.2L160 832c0 19.2 12.8 32 32 32l640 0c19.2 0 32-12.8 32-32L864 467.2C864 460.8 857.6 448 851.2 441.6zM601.6 806.4 422.4 806.4l0-147.2c0-51.2 38.4-89.6 89.6-89.6s89.6 38.4 89.6 89.6L601.6 806.4z" p-id="4304" data-spm-anchor-id="a313x.7781069.0.i15" class="" fill="#828282"></path></svg>