<?xml version="1.0" standalone="no"?><!DOCTYPE svg PUBLIC "-//W3C//DTD SVG 1.1//EN" "http://www.w3.org/Graphics/SVG/1.1/DTD/svg11.dtd"><svg t="1640067329072" class="icon" viewBox="0 0 1024 1024" version="1.1" xmlns="http://www.w3.org/2000/svg" p-id="10838" xmlns:xlink="http://www.w3.org/1999/xlink" width="200" height="200"><defs><style type="text/css"></style></defs><path d="M867.946372 220.352423c45.312936 0 82.221053-33.838531 82.221054-75.424113v-38.515996C950.167426 13.886222 675.366394 0 511.655141 0S73.142857 13.886222 73.142857 106.412314v38.515996c0 41.585582 36.908117 75.424113 82.221053 75.424113H182.770928v586.364009a27.260847 27.260847 0 0 1-27.407018 27.260847h-54.814035a27.187762 27.187762 0 0 0-27.407018 26.89542v135.427211c0 14.836332 12.278344 26.89542 27.407018 26.89542h822.210533a27.187762 27.187762 0 0 0 27.407018-26.89542v-135.427211a27.187762 27.187762 0 0 0-27.407018-26.968505h-54.814036a27.333932 27.333932 0 0 1-27.407017-27.187762V220.352423h27.407017z m-58.175963 643.662948c15.494101 15.34793 36.177263 23.752749 58.175963 23.752749h27.407018v81.563284H127.956893v-81.563284h27.407017c21.925614 0 42.681862-8.404819 58.175963-23.752749 15.494101-15.34793 24.04509-35.665666 24.045091-57.298939V193.383917a27.187762 27.187762 0 0 0-27.407018-26.89542h-54.814036c-14.836332 0-27.407018-9.866526-27.407017-21.560187v-36.54269C141.477688 89.895018 250.009478 53.863926 511.655141 53.863926s370.177453 36.104178 383.698249 54.521694v36.54269c0 11.693661-12.570685 21.560187-27.407018 21.560187h-54.814035a27.187762 27.187762 0 0 0-27.407018 26.89542v613.332515c0 21.633273 8.55099 41.951009 24.04509 57.298939zM653.952378 342.770436H369.28482C326.895299 342.770436 292.398999 378.582272 292.398999 422.433501v57.006596c0 43.924314 34.4963 79.663065 76.885821 79.663065h284.740643C696.414984 559.103162 730.911284 523.364411 730.911284 479.440097v-57.006596c0-43.924314-34.4963-79.663065-76.958906-79.663065z m22.14487 136.669661c0 14.251649-9.939612 25.799139-22.14487 25.79914H369.28482c-12.132173 0-22.071785-11.54749-22.071785-25.726054V422.433501c0-14.251649 9.939612-25.799139 22.071785-25.79914h284.740643c12.132173 0 22.071785 11.54749 22.071785 25.79914v57.006596zM221.286924 234.238645H803.26581v-58.468304H221.286924v58.468304z" p-id="10839" data-spm-anchor-id="a313x.7781069.0.i26" class="" fill="#828282"></path></svg>